<svg width="100" height="88" viewBox="0 0 100 88" fill="none" xmlns="http://www.w3.org/2000/svg">
<path d="M50 9.625C29.2773 9.625 12.1875 25.1328 9.6875 45.1719C11.5234 44.4297 13.5156 44 15.625 44C20.8008 44 25 48.1992 25 53.375V78.375C25 83.5508 20.8008 87.75 15.625 87.75C6.99219 87.75 0 80.7578 0 72.125V69V59.625V50.25C0 22.6328 22.3828 0.25 50 0.25C77.6172 0.25 100 22.6328 100 50.25V59.625V69V72.125C100 80.7578 93.0078 87.75 84.375 87.75C79.1992 87.75 75 83.5508 75 78.375V53.375C75 48.1992 79.1992 44 84.375 44C86.4844 44 88.4766 44.4102 90.3125 45.1719C87.8125 25.1328 70.7227 9.625 50 9.625Z" fill="#29D9D5"/>
</svg>
