<svg width="100" height="100" viewBox="0 0 100 100" fill="none" xmlns="http://www.w3.org/2000/svg">
<path d="M92.8571 0C89.2857 0 64.2857 6.25 64.2857 34.375V56.25C64.2857 63.1445 70.692 68.75 78.5714 68.75H85.7143V93.75C85.7143 97.207 88.9062 100 92.8571 100C96.808 100 100 97.207 100 93.75V68.75V46.875V6.25C100 2.79297 96.808 0 92.8571 0ZM14.2857 3.125C14.2857 1.52344 12.9241 0.195312 11.0938 0.0195312C9.26339 -0.15625 7.63393 0.898438 7.23214 2.44141L0.46875 29.0625C0.15625 30.293 0 31.543 0 32.793C0 41.7578 7.83482 49.1211 17.8571 49.9219V93.75C17.8571 97.207 21.0491 100 25 100C28.9509 100 32.1429 97.207 32.1429 93.75V49.9219C42.1652 49.1211 50 41.7578 50 32.793C50 31.543 49.8438 30.293 49.5312 29.0625L42.7679 2.44141C42.3661 0.878906 40.692 -0.15625 38.8839 0.0195312C37.0759 0.195312 35.7143 1.52344 35.7143 3.125V29.3359C35.7143 30.3906 34.7321 31.25 33.5268 31.25C32.3884 31.25 31.4509 30.4883 31.3393 29.4922L28.5491 2.85156C28.3929 1.23047 26.8527 0 25 0C23.1473 0 21.6071 1.23047 21.4509 2.85156L18.683 29.4922C18.5714 30.4883 17.6339 31.25 16.4955 31.25C15.2902 31.25 14.308 30.3906 14.308 29.3359V3.125H14.2857ZM25.067 32.8125H25H24.933L25 32.6758L25.067 32.8125Z" fill="#29D9D5"/>
</svg>
