<svg width="99" height="100" viewBox="0 0 99 100" fill="none" xmlns="http://www.w3.org/2000/svg">
<path d="M49 9.375C49 6.8886 50.317 4.50403 52.6612 2.74587C55.0054 0.98772 58.1848 0 61.5 0C64.8152 0 67.9946 0.98772 70.3388 2.74587C72.683 4.50403 74 6.8886 74 9.375C74 11.8614 72.683 14.246 70.3388 16.0041C67.9946 17.7623 64.8152 18.75 61.5 18.75C58.1848 18.75 55.0054 17.7623 52.6612 16.0041C50.317 14.246 49 11.8614 49 9.375ZM62.3594 45.0586L57.3854 59.9609L70.3281 69.668C72.6719 71.4258 74 73.8086 74 76.2891V93.75C74 97.207 70.276 100 65.6667 100C61.0573 100 57.3333 97.207 57.3333 93.75V77.5977L38.0885 63.1641C33.974 60.0781 32.3073 55.625 33.6875 51.3867L39 34.9805C41.1615 28.3203 50.1198 24.2578 58.974 25.918C63.9219 26.8555 68.2448 29.1211 71.0573 32.3047L78.4531 40.625H86.5V35.9375C86.5 33.3398 89.2865 31.25 92.75 31.25C96.2135 31.25 99 33.3398 99 35.9375V46.8359C99 46.8555 99 46.875 99 46.875V46.9141V95.3125C99 97.9102 96.2135 100 92.75 100C89.2865 100 86.5 97.9102 86.5 95.3125V53.125H76.2396C72.0729 53.125 68.1667 51.5625 65.849 48.9453L62.3854 45.0391L62.3594 45.0586ZM20.1198 92.168L29.5469 65.2344C30.3281 66.0547 31.2135 66.8359 32.1771 67.5586L43.0885 75.7422L36.2135 95.332C35.0417 98.6719 30.4844 100.664 26.0312 99.7852C21.5781 98.9062 18.9219 95.4883 20.0937 92.1484L20.1198 92.168ZM34.5729 24.5898L25.4062 52.0508C24.625 54.4141 21.526 55.9375 18.3229 55.5469L5.84895 53.9844C2.20312 53.5352 -0.114587 50.8008 0.848955 48.125L7.30729 30.2734C9.78125 23.4766 18.0104 18.75 27.4115 18.75H28.5052C32.5677 18.75 35.5625 21.6211 34.5729 24.5703V24.5898Z" fill="#29D9D5"/>
</svg>
