<svg width="168" height="12" viewBox="0 0 168 12" fill="none" xmlns="http://www.w3.org/2000/svg">
<path d="M3.084 9.108C2.572 9.108 2.12 8.988 1.728 8.748C1.344 8.5 1.044 8.148 0.828 7.692C0.612 7.228 0.504 6.688 0.504 6.072C0.504 5.44 0.612 4.9 0.828 4.452C1.044 4.004 1.344 3.656 1.728 3.408C2.12 3.16 2.572 3.036 3.084 3.036C3.596 3.036 4.036 3.164 4.404 3.42C4.78 3.668 5.032 4.004 5.16 4.428H5.028V1.068C5.028 0.868 5.08 0.715999 5.184 0.611999C5.288 0.508 5.436 0.456 5.628 0.456C5.82 0.456 5.968 0.508 6.072 0.611999C6.184 0.715999 6.24 0.868 6.24 1.068V8.472C6.24 8.664 6.188 8.816 6.084 8.928C5.98 9.032 5.832 9.084 5.64 9.084C5.448 9.084 5.3 9.032 5.196 8.928C5.092 8.816 5.04 8.664 5.04 8.472V7.416L5.172 7.68C5.044 8.112 4.792 8.46 4.416 8.724C4.048 8.98 3.604 9.108 3.084 9.108ZM3.396 8.172C3.724 8.172 4.012 8.092 4.26 7.932C4.508 7.772 4.7 7.536 4.836 7.224C4.98 6.912 5.052 6.528 5.052 6.072C5.052 5.384 4.9 4.864 4.596 4.512C4.292 4.16 3.892 3.984 3.396 3.984C3.06 3.984 2.768 4.064 2.52 4.224C2.272 4.376 2.076 4.608 1.932 4.92C1.796 5.232 1.728 5.616 1.728 6.072C1.728 6.752 1.88 7.272 2.184 7.632C2.488 7.992 2.892 8.172 3.396 8.172ZM8.54184 9.084C8.34984 9.084 8.20184 9.032 8.09784 8.928C7.99384 8.816 7.94184 8.664 7.94184 8.472V3.672C7.94184 3.472 7.99384 3.32 8.09784 3.216C8.20184 3.112 8.34584 3.06 8.52984 3.06C8.72184 3.06 8.86584 3.112 8.96184 3.216C9.06584 3.32 9.11784 3.472 9.11784 3.672V4.608L8.98584 4.392C9.16184 3.944 9.43784 3.608 9.81384 3.384C10.1898 3.152 10.6218 3.036 11.1098 3.036C11.5738 3.036 11.9578 3.124 12.2618 3.3C12.5738 3.468 12.8058 3.728 12.9578 4.08C13.1098 4.424 13.1858 4.86 13.1858 5.388V8.472C13.1858 8.664 13.1338 8.816 13.0298 8.928C12.9258 9.032 12.7778 9.084 12.5858 9.084C12.3858 9.084 12.2338 9.032 12.1298 8.928C12.0258 8.816 11.9738 8.664 11.9738 8.472V5.46C11.9738 4.956 11.8738 4.588 11.6738 4.356C11.4818 4.124 11.1778 4.008 10.7618 4.008C10.2738 4.008 9.88184 4.16 9.58584 4.464C9.29784 4.768 9.15384 5.176 9.15384 5.688V8.472C9.15384 8.88 8.94984 9.084 8.54184 9.084ZM16.1773 11.244C16.0333 11.244 15.9133 11.204 15.8173 11.124C15.7293 11.052 15.6773 10.952 15.6613 10.824C15.6533 10.704 15.6773 10.572 15.7333 10.428L16.5493 8.592V9.108L14.3053 3.888C14.2493 3.744 14.2293 3.608 14.2453 3.48C14.2613 3.352 14.3213 3.252 14.4253 3.18C14.5293 3.1 14.6693 3.06 14.8453 3.06C14.9973 3.06 15.1173 3.096 15.2053 3.168C15.2933 3.24 15.3733 3.364 15.4453 3.54L17.2573 8.016H16.9213L18.7573 3.54C18.8293 3.356 18.9133 3.232 19.0093 3.168C19.1053 3.096 19.2373 3.06 19.4053 3.06C19.5493 3.06 19.6613 3.1 19.7413 3.18C19.8293 3.252 19.8813 3.352 19.8973 3.48C19.9213 3.6 19.9013 3.732 19.8373 3.876L16.8373 10.776C16.7573 10.96 16.6653 11.084 16.5613 11.148C16.4653 11.212 16.3373 11.244 16.1773 11.244ZM22.7865 9.108C22.3785 9.108 22.0105 9.028 21.6825 8.868C21.3625 8.708 21.1105 8.492 20.9265 8.22C20.7425 7.948 20.6505 7.64 20.6505 7.296C20.6505 6.864 20.7585 6.524 20.9745 6.276C21.1985 6.02 21.5625 5.84 22.0665 5.736C22.5785 5.624 23.2665 5.568 24.1305 5.568H24.6945V6.312H24.1425C23.5665 6.312 23.1105 6.34 22.7745 6.396C22.4385 6.452 22.1985 6.548 22.0545 6.684C21.9185 6.812 21.8505 6.992 21.8505 7.224C21.8505 7.528 21.9545 7.776 22.1625 7.968C22.3705 8.152 22.6585 8.244 23.0265 8.244C23.3225 8.244 23.5825 8.176 23.8065 8.04C24.0305 7.896 24.2065 7.704 24.3345 7.464C24.4705 7.224 24.5385 6.948 24.5385 6.636V5.256C24.5385 4.8 24.4425 4.472 24.2505 4.272C24.0585 4.072 23.7425 3.972 23.3025 3.972C23.0465 3.972 22.7785 4.004 22.4985 4.068C22.2265 4.132 21.9425 4.24 21.6465 4.392C21.5105 4.456 21.3945 4.476 21.2985 4.452C21.2025 4.428 21.1265 4.376 21.0705 4.296C21.0145 4.208 20.9825 4.116 20.9745 4.02C20.9745 3.916 20.9985 3.816 21.0465 3.72C21.1025 3.624 21.1945 3.552 21.3225 3.504C21.6745 3.336 22.0225 3.216 22.3665 3.144C22.7105 3.072 23.0345 3.036 23.3385 3.036C23.8745 3.036 24.3145 3.12 24.6585 3.288C25.0105 3.456 25.2705 3.712 25.4385 4.056C25.6065 4.4 25.6905 4.844 25.6905 5.388V8.472C25.6905 8.664 25.6425 8.816 25.5465 8.928C25.4505 9.032 25.3105 9.084 25.1265 9.084C24.9505 9.084 24.8105 9.032 24.7065 8.928C24.6025 8.816 24.5505 8.664 24.5505 8.472V7.692H24.6585C24.5945 7.988 24.4745 8.244 24.2985 8.46C24.1305 8.668 23.9185 8.828 23.6625 8.94C23.4065 9.052 23.1145 9.108 22.7865 9.108ZM27.9598 9.084C27.7678 9.084 27.6198 9.032 27.5158 8.928C27.4118 8.816 27.3598 8.664 27.3598 8.472V3.672C27.3598 3.472 27.4118 3.32 27.5158 3.216C27.6198 3.112 27.7638 3.06 27.9478 3.06C28.1398 3.06 28.2838 3.112 28.3798 3.216C28.4838 3.32 28.5358 3.472 28.5358 3.672V4.608L28.4038 4.392C28.5798 3.944 28.8558 3.608 29.2318 3.384C29.6078 3.152 30.0398 3.036 30.5278 3.036C30.9918 3.036 31.3758 3.124 31.6798 3.3C31.9918 3.468 32.2238 3.728 32.3758 4.08C32.5278 4.424 32.6038 4.86 32.6038 5.388V8.472C32.6038 8.664 32.5518 8.816 32.4478 8.928C32.3438 9.032 32.1958 9.084 32.0038 9.084C31.8038 9.084 31.6518 9.032 31.5478 8.928C31.4438 8.816 31.3918 8.664 31.3918 8.472V5.46C31.3918 4.956 31.2918 4.588 31.0918 4.356C30.8998 4.124 30.5958 4.008 30.1798 4.008C29.6918 4.008 29.2998 4.16 29.0038 4.464C28.7158 4.768 28.5718 5.176 28.5718 5.688V8.472C28.5718 8.88 28.3678 9.084 27.9598 9.084ZM37.0219 9.108C36.3819 9.108 35.8299 8.988 35.3659 8.748C34.9099 8.5 34.5539 8.152 34.2979 7.704C34.0499 7.248 33.9259 6.708 33.9259 6.084C33.9259 5.476 34.0499 4.944 34.2979 4.488C34.5459 4.032 34.8859 3.676 35.3179 3.42C35.7499 3.164 36.2419 3.036 36.7939 3.036C37.2019 3.036 37.5659 3.104 37.8859 3.24C38.2059 3.368 38.4779 3.56 38.7019 3.816C38.9339 4.064 39.1059 4.368 39.2179 4.728C39.3379 5.088 39.3979 5.492 39.3979 5.94C39.3979 6.076 39.3579 6.18 39.2779 6.252C39.1979 6.316 39.0779 6.348 38.9179 6.348H34.8859V5.604H38.5819L38.3779 5.772C38.3779 5.372 38.3179 5.032 38.1979 4.752C38.0859 4.472 37.9139 4.26 37.6819 4.116C37.4579 3.964 37.1779 3.888 36.8419 3.888C36.4659 3.888 36.1459 3.976 35.8819 4.152C35.6259 4.328 35.4299 4.572 35.2939 4.884C35.1579 5.196 35.0899 5.56 35.0899 5.976V6.048C35.0899 6.752 35.2539 7.284 35.5819 7.644C35.9179 7.996 36.4019 8.172 37.0339 8.172C37.2739 8.172 37.5259 8.14 37.7899 8.076C38.0619 8.012 38.3179 7.904 38.5579 7.752C38.6939 7.672 38.8139 7.636 38.9179 7.644C39.0299 7.652 39.1179 7.688 39.1819 7.752C39.2539 7.816 39.2979 7.896 39.3139 7.992C39.3299 8.088 39.3139 8.188 39.2659 8.292C39.2179 8.388 39.1339 8.476 39.0139 8.556C38.7419 8.74 38.4259 8.88 38.0659 8.976C37.7059 9.064 37.3579 9.108 37.0219 9.108ZM42.7712 9.108C42.4192 9.108 42.0552 9.068 41.6792 8.988C41.3112 8.908 40.9712 8.772 40.6592 8.58C40.5552 8.508 40.4832 8.428 40.4432 8.34C40.4032 8.252 40.3872 8.164 40.3952 8.076C40.4112 7.98 40.4472 7.9 40.5032 7.836C40.5672 7.764 40.6432 7.72 40.7312 7.704C40.8272 7.688 40.9272 7.708 41.0312 7.764C41.3432 7.94 41.6432 8.064 41.9312 8.136C42.2192 8.2 42.5032 8.232 42.7832 8.232C43.2072 8.232 43.5272 8.156 43.7432 8.004C43.9592 7.852 44.0672 7.648 44.0672 7.392C44.0672 7.184 43.9952 7.024 43.8512 6.912C43.7072 6.792 43.4912 6.7 43.2032 6.636L42.0632 6.408C41.5672 6.304 41.1912 6.12 40.9352 5.856C40.6792 5.592 40.5512 5.256 40.5512 4.848C40.5512 4.48 40.6512 4.16 40.8512 3.888C41.0512 3.616 41.3312 3.408 41.6912 3.264C42.0512 3.112 42.4672 3.036 42.9392 3.036C43.2912 3.036 43.6232 3.08 43.9352 3.168C44.2472 3.256 44.5352 3.388 44.7992 3.564C44.9032 3.62 44.9712 3.696 45.0032 3.792C45.0352 3.88 45.0392 3.968 45.0152 4.056C44.9992 4.144 44.9592 4.224 44.8952 4.296C44.8312 4.36 44.7512 4.4 44.6552 4.416C44.5672 4.424 44.4672 4.4 44.3552 4.344C44.1152 4.192 43.8752 4.084 43.6352 4.02C43.4032 3.956 43.1712 3.924 42.9392 3.924C42.5152 3.924 42.1952 4.004 41.9792 4.164C41.7712 4.316 41.6672 4.524 41.6672 4.788C41.6672 4.988 41.7312 5.152 41.8592 5.28C41.9872 5.408 42.1872 5.5 42.4592 5.556L43.5992 5.784C44.1192 5.888 44.5112 6.064 44.7752 6.312C45.0472 6.56 45.1832 6.896 45.1832 7.32C45.1832 7.872 44.9632 8.308 44.5232 8.628C44.0832 8.948 43.4992 9.108 42.7712 9.108ZM47.1317 9.084C46.9397 9.084 46.7917 9.032 46.6877 8.928C46.5837 8.816 46.5317 8.664 46.5317 8.472V1.068C46.5317 0.868 46.5837 0.715999 46.6877 0.611999C46.7917 0.508 46.9397 0.456 47.1317 0.456C47.3237 0.456 47.4717 0.508 47.5757 0.611999C47.6877 0.715999 47.7437 0.868 47.7437 1.068V4.392H47.5757C47.7517 3.944 48.0277 3.608 48.4037 3.384C48.7797 3.152 49.2117 3.036 49.6997 3.036C50.1637 3.036 50.5477 3.124 50.8517 3.3C51.1637 3.468 51.3957 3.728 51.5477 4.08C51.6997 4.424 51.7757 4.86 51.7757 5.388V8.472C51.7757 8.664 51.7237 8.816 51.6197 8.928C51.5157 9.032 51.3677 9.084 51.1757 9.084C50.9757 9.084 50.8237 9.032 50.7197 8.928C50.6157 8.816 50.5637 8.664 50.5637 8.472V5.46C50.5637 4.956 50.4637 4.588 50.2637 4.356C50.0717 4.124 49.7677 4.008 49.3517 4.008C48.8637 4.008 48.4717 4.16 48.1757 4.464C47.8877 4.768 47.7437 5.176 47.7437 5.688V8.472C47.7437 8.88 47.5397 9.084 47.1317 9.084ZM55.5232 9.084C55.3552 9.084 55.2072 9.044 55.0792 8.964C54.9592 8.876 54.8632 8.74 54.7912 8.556L53.0272 3.888C52.9632 3.728 52.9432 3.588 52.9672 3.468C52.9912 3.34 53.0512 3.24 53.1472 3.168C53.2512 3.096 53.3832 3.06 53.5432 3.06C53.6872 3.06 53.8032 3.096 53.8912 3.168C53.9872 3.232 54.0672 3.36 54.1312 3.552L55.7032 7.98H55.4152L57.0472 3.504C57.1032 3.352 57.1792 3.24 57.2752 3.168C57.3712 3.096 57.4952 3.06 57.6472 3.06C57.7992 3.06 57.9232 3.096 58.0192 3.168C58.1232 3.24 58.1992 3.352 58.2472 3.504L59.8432 7.98H59.5792L61.1752 3.528C61.2392 3.344 61.3192 3.22 61.4152 3.156C61.5192 3.092 61.6352 3.06 61.7632 3.06C61.9232 3.06 62.0432 3.1 62.1232 3.18C62.2112 3.26 62.2592 3.364 62.2672 3.492C62.2832 3.612 62.2632 3.744 62.2072 3.888L60.4432 8.556C60.3712 8.732 60.2712 8.864 60.1432 8.952C60.0232 9.04 59.8832 9.084 59.7232 9.084C59.5552 9.084 59.4072 9.04 59.2792 8.952C59.1592 8.864 59.0632 8.732 58.9912 8.556L57.3112 4.008H57.9112L56.2432 8.556C56.1792 8.732 56.0832 8.864 55.9552 8.952C55.8352 9.04 55.6912 9.084 55.5232 9.084ZM65.2904 9.108C64.8824 9.108 64.5144 9.028 64.1864 8.868C63.8664 8.708 63.6144 8.492 63.4304 8.22C63.2464 7.948 63.1544 7.64 63.1544 7.296C63.1544 6.864 63.2624 6.524 63.4784 6.276C63.7024 6.02 64.0664 5.84 64.5704 5.736C65.0824 5.624 65.7704 5.568 66.6344 5.568H67.1984V6.312H66.6464C66.0704 6.312 65.6144 6.34 65.2784 6.396C64.9424 6.452 64.7024 6.548 64.5584 6.684C64.4224 6.812 64.3544 6.992 64.3544 7.224C64.3544 7.528 64.4584 7.776 64.6664 7.968C64.8744 8.152 65.1624 8.244 65.5304 8.244C65.8264 8.244 66.0864 8.176 66.3104 8.04C66.5344 7.896 66.7104 7.704 66.8384 7.464C66.9744 7.224 67.0424 6.948 67.0424 6.636V5.256C67.0424 4.8 66.9464 4.472 66.7544 4.272C66.5624 4.072 66.2464 3.972 65.8064 3.972C65.5504 3.972 65.2824 4.004 65.0024 4.068C64.7304 4.132 64.4464 4.24 64.1504 4.392C64.0144 4.456 63.8984 4.476 63.8024 4.452C63.7064 4.428 63.6304 4.376 63.5744 4.296C63.5184 4.208 63.4864 4.116 63.4784 4.02C63.4784 3.916 63.5024 3.816 63.5504 3.72C63.6064 3.624 63.6984 3.552 63.8264 3.504C64.1784 3.336 64.5264 3.216 64.8704 3.144C65.2144 3.072 65.5384 3.036 65.8424 3.036C66.3784 3.036 66.8184 3.12 67.1624 3.288C67.5144 3.456 67.7744 3.712 67.9424 4.056C68.1104 4.4 68.1944 4.844 68.1944 5.388V8.472C68.1944 8.664 68.1464 8.816 68.0504 8.928C67.9544 9.032 67.8144 9.084 67.6304 9.084C67.4544 9.084 67.3144 9.032 67.2104 8.928C67.1064 8.816 67.0544 8.664 67.0544 8.472V7.692H67.1624C67.0984 7.988 66.9784 8.244 66.8024 8.46C66.6344 8.668 66.4224 8.828 66.1664 8.94C65.9104 9.052 65.6184 9.108 65.2904 9.108ZM70.4757 9.084C70.2757 9.084 70.1237 9.032 70.0197 8.928C69.9157 8.816 69.8637 8.664 69.8637 8.472V3.672C69.8637 3.472 69.9157 3.32 70.0197 3.216C70.1237 3.112 70.2677 3.06 70.4517 3.06C70.6437 3.06 70.7877 3.112 70.8837 3.216C70.9877 3.32 71.0397 3.472 71.0397 3.672V4.548H70.9197C71.0477 4.068 71.2837 3.704 71.6277 3.456C71.9717 3.208 72.4117 3.064 72.9477 3.024C73.0917 3.016 73.2037 3.052 73.2837 3.132C73.3717 3.212 73.4197 3.336 73.4277 3.504C73.4437 3.672 73.4077 3.808 73.3197 3.912C73.2317 4.008 73.0957 4.064 72.9117 4.08L72.6837 4.104C72.1637 4.152 71.7677 4.316 71.4957 4.596C71.2237 4.876 71.0877 5.26 71.0877 5.748V8.472C71.0877 8.664 71.0357 8.816 70.9317 8.928C70.8357 9.032 70.6837 9.084 70.4757 9.084ZM74.9403 11.244C74.7483 11.244 74.6003 11.192 74.4963 11.088C74.3923 10.984 74.3403 10.832 74.3403 10.632V3.672C74.3403 3.472 74.3923 3.32 74.4963 3.216C74.6003 3.112 74.7443 3.06 74.9283 3.06C75.1203 3.06 75.2683 3.112 75.3723 3.216C75.4763 3.32 75.5283 3.472 75.5283 3.672V4.716L75.3963 4.464C75.5243 4.032 75.7763 3.688 76.1523 3.432C76.5283 3.168 76.9723 3.036 77.4843 3.036C78.0043 3.036 78.4563 3.16 78.8403 3.408C79.2323 3.656 79.5323 4.004 79.7403 4.452C79.9563 4.9 80.0643 5.44 80.0643 6.072C80.0643 6.688 79.9563 7.228 79.7403 7.692C79.5323 8.148 79.2363 8.5 78.8523 8.748C78.4683 8.988 78.0123 9.108 77.4843 9.108C76.9803 9.108 76.5403 8.98 76.1643 8.724C75.7883 8.468 75.5363 8.128 75.4083 7.704H75.5523V10.632C75.5523 10.832 75.4963 10.984 75.3843 11.088C75.2803 11.192 75.1323 11.244 74.9403 11.244ZM77.1843 8.172C77.5203 8.172 77.8123 8.092 78.0603 7.932C78.3083 7.772 78.5003 7.536 78.6363 7.224C78.7723 6.912 78.8403 6.528 78.8403 6.072C78.8403 5.384 78.6883 4.864 78.3843 4.512C78.0883 4.16 77.6883 3.984 77.1843 3.984C76.8563 3.984 76.5643 4.064 76.3083 4.224C76.0603 4.376 75.8683 4.608 75.7323 4.92C75.5963 5.232 75.5283 5.616 75.5283 6.072C75.5283 6.752 75.6803 7.272 75.9843 7.632C76.2883 7.992 76.6883 8.172 77.1843 8.172ZM82.0301 9.084C81.8381 9.084 81.6901 9.032 81.5861 8.928C81.4821 8.816 81.4301 8.664 81.4301 8.472V1.068C81.4301 0.868 81.4821 0.715999 81.5861 0.611999C81.6901 0.508 81.8381 0.456 82.0301 0.456C82.2221 0.456 82.3701 0.508 82.4741 0.611999C82.5861 0.715999 82.6421 0.868 82.6421 1.068V5.7H82.6661L84.9101 3.468C85.0381 3.34 85.1541 3.24 85.2581 3.168C85.3621 3.096 85.4981 3.06 85.6661 3.06C85.8341 3.06 85.9621 3.104 86.0501 3.192C86.1381 3.28 86.1821 3.388 86.1821 3.516C86.1821 3.636 86.1221 3.76 86.0021 3.888L83.6261 6.24V5.676L86.2181 8.256C86.3461 8.384 86.4061 8.512 86.3981 8.64C86.3901 8.768 86.3381 8.876 86.2421 8.964C86.1461 9.044 86.0261 9.084 85.8821 9.084C85.6981 9.084 85.5501 9.048 85.4381 8.976C85.3341 8.904 85.2101 8.796 85.0661 8.652L82.6661 6.324H82.6421V8.472C82.6421 8.88 82.4381 9.084 82.0301 9.084ZM88.3376 9C88.1216 9 87.9656 8.952 87.8696 8.856C87.7736 8.752 87.7256 8.612 87.7256 8.436C87.7256 8.324 87.7536 8.216 87.8096 8.112C87.8656 8.008 87.9456 7.9 88.0496 7.788L90.6056 5.052C90.9976 4.636 91.2776 4.256 91.4456 3.912C91.6216 3.56 91.7096 3.208 91.7096 2.856C91.7096 2.408 91.5736 2.068 91.3016 1.836C91.0296 1.604 90.6296 1.488 90.1016 1.488C89.7816 1.488 89.4736 1.536 89.1776 1.632C88.8816 1.728 88.5856 1.884 88.2896 2.1C88.1696 2.18 88.0576 2.216 87.9536 2.208C87.8496 2.2 87.7576 2.16 87.6776 2.088C87.6056 2.016 87.5576 1.928 87.5336 1.824C87.5096 1.72 87.5136 1.612 87.5456 1.5C87.5776 1.388 87.6536 1.292 87.7736 1.212C88.1016 0.964 88.4816 0.772 88.9136 0.636C89.3456 0.5 89.7856 0.431999 90.2336 0.431999C90.8176 0.431999 91.3096 0.523999 91.7096 0.707999C92.1176 0.884 92.4256 1.144 92.6336 1.488C92.8416 1.832 92.9456 2.252 92.9456 2.748C92.9456 3.084 92.8896 3.412 92.7776 3.732C92.6736 4.052 92.5096 4.38 92.2856 4.716C92.0696 5.044 91.7856 5.392 91.4336 5.76L89.0096 8.304V7.956H92.8256C93.0016 7.956 93.1376 8 93.2336 8.088C93.3296 8.176 93.3776 8.304 93.3776 8.472C93.3776 8.64 93.3296 8.772 93.2336 8.868C93.1376 8.956 93.0016 9 92.8256 9H88.3376ZM97.5609 9.108C96.5769 9.108 95.8249 8.736 95.3049 7.992C94.7929 7.24 94.5369 6.164 94.5369 4.764C94.5369 3.812 94.6529 3.016 94.8849 2.376C95.1169 1.736 95.4569 1.252 95.9049 0.924C96.3529 0.595999 96.9049 0.431999 97.5609 0.431999C98.5529 0.431999 99.3049 0.799999 99.8169 1.536C100.329 2.264 100.585 3.336 100.585 4.752C100.585 5.688 100.469 6.48 100.237 7.128C100.005 7.776 99.6649 8.268 99.2169 8.604C98.7689 8.94 98.2169 9.108 97.5609 9.108ZM97.5609 8.076C98.1769 8.076 98.6289 7.808 98.9169 7.272C99.2129 6.728 99.3609 5.888 99.3609 4.752C99.3609 3.608 99.2129 2.776 98.9169 2.256C98.6289 1.728 98.1769 1.464 97.5609 1.464C96.9529 1.464 96.5009 1.728 96.2049 2.256C95.9089 2.776 95.7609 3.608 95.7609 4.752C95.7609 5.888 95.9089 6.728 96.2049 7.272C96.5009 7.808 96.9529 8.076 97.5609 8.076ZM106.976 10.968C106.216 10.968 105.52 10.844 104.888 10.596C104.256 10.356 103.712 10.004 103.256 9.54C102.808 9.084 102.46 8.54 102.212 7.908C101.972 7.268 101.852 6.548 101.852 5.748C101.852 4.956 101.976 4.236 102.224 3.588C102.48 2.932 102.844 2.368 103.316 1.896C103.788 1.424 104.348 1.064 104.996 0.816C105.652 0.559999 106.372 0.431999 107.156 0.431999C108.092 0.431999 108.912 0.619999 109.616 0.995999C110.32 1.364 110.864 1.88 111.248 2.544C111.64 3.208 111.836 3.988 111.836 4.884C111.836 5.58 111.74 6.184 111.548 6.696C111.356 7.2 111.088 7.592 110.744 7.872C110.4 8.152 109.996 8.292 109.532 8.292C109.052 8.292 108.684 8.156 108.428 7.884C108.172 7.612 108.048 7.236 108.056 6.756L108.356 6.744C108.156 7.248 107.872 7.632 107.504 7.896C107.136 8.16 106.744 8.292 106.328 8.292C105.696 8.292 105.204 8.096 104.852 7.704C104.508 7.312 104.336 6.772 104.336 6.084C104.336 5.5 104.448 4.98 104.672 4.524C104.896 4.06 105.204 3.696 105.596 3.432C105.988 3.168 106.432 3.036 106.928 3.036C107.352 3.036 107.7 3.144 107.972 3.36C108.252 3.576 108.436 3.884 108.524 4.284H108.356L108.488 3.552C108.536 3.256 108.712 3.108 109.016 3.108C109.168 3.108 109.28 3.152 109.352 3.24C109.432 3.328 109.456 3.456 109.424 3.624L108.98 6.156C108.956 6.276 108.936 6.388 108.92 6.492C108.912 6.588 108.908 6.68 108.908 6.768C108.908 7.024 108.964 7.216 109.076 7.344C109.196 7.472 109.368 7.536 109.592 7.536C109.88 7.536 110.132 7.428 110.348 7.212C110.564 6.988 110.732 6.676 110.852 6.276C110.972 5.876 111.032 5.412 111.032 4.884C111.032 4.132 110.872 3.484 110.552 2.94C110.232 2.388 109.78 1.964 109.196 1.668C108.62 1.372 107.936 1.224 107.144 1.224C106.264 1.224 105.492 1.412 104.828 1.788C104.172 2.156 103.66 2.68 103.292 3.36C102.924 4.04 102.74 4.836 102.74 5.748C102.74 6.668 102.912 7.46 103.256 8.124C103.608 8.788 104.1 9.296 104.732 9.648C105.372 10 106.12 10.176 106.976 10.176C107.536 10.176 108.044 10.104 108.5 9.96C108.956 9.816 109.356 9.608 109.7 9.336C109.82 9.24 109.932 9.2 110.036 9.216C110.148 9.24 110.232 9.296 110.288 9.384C110.352 9.472 110.376 9.568 110.36 9.672C110.344 9.784 110.276 9.888 110.156 9.984C109.788 10.288 109.332 10.528 108.788 10.704C108.252 10.88 107.648 10.968 106.976 10.968ZM106.484 7.488C106.812 7.488 107.104 7.388 107.36 7.188C107.624 6.98 107.828 6.7 107.972 6.348C108.124 5.988 108.2 5.58 108.2 5.124C108.2 4.7 108.104 4.384 107.912 4.176C107.728 3.96 107.444 3.852 107.06 3.852C106.732 3.852 106.436 3.948 106.172 4.14C105.908 4.332 105.7 4.596 105.548 4.932C105.404 5.26 105.332 5.64 105.332 6.072C105.332 6.528 105.432 6.88 105.632 7.128C105.832 7.368 106.116 7.488 106.484 7.488ZM116.039 11.268C115.607 11.268 115.187 11.224 114.779 11.136C114.379 11.048 114.015 10.904 113.687 10.704C113.567 10.64 113.487 10.56 113.447 10.464C113.407 10.376 113.395 10.284 113.411 10.188C113.435 10.092 113.479 10.008 113.543 9.936C113.607 9.864 113.683 9.816 113.771 9.792C113.867 9.768 113.967 9.784 114.071 9.84C114.423 10.032 114.755 10.16 115.067 10.224C115.387 10.296 115.683 10.332 115.955 10.332C116.515 10.332 116.935 10.188 117.215 9.9C117.495 9.62 117.635 9.204 117.635 8.652V7.428H117.743C117.623 7.868 117.371 8.216 116.987 8.472C116.603 8.728 116.159 8.856 115.655 8.856C115.127 8.856 114.667 8.736 114.275 8.496C113.883 8.248 113.579 7.908 113.363 7.476C113.147 7.036 113.039 6.524 113.039 5.94C113.039 5.5 113.099 5.104 113.219 4.752C113.347 4.4 113.523 4.096 113.747 3.84C113.979 3.584 114.255 3.388 114.575 3.252C114.903 3.108 115.263 3.036 115.655 3.036C116.167 3.036 116.611 3.164 116.987 3.42C117.371 3.676 117.619 4.024 117.731 4.464L117.611 4.668V3.672C117.611 3.472 117.663 3.32 117.767 3.216C117.879 3.112 118.027 3.06 118.211 3.06C118.403 3.06 118.551 3.112 118.655 3.216C118.759 3.32 118.811 3.472 118.811 3.672V8.508C118.811 9.42 118.575 10.108 118.103 10.572C117.631 11.036 116.943 11.268 116.039 11.268ZM115.943 7.908C116.295 7.908 116.595 7.828 116.843 7.668C117.091 7.508 117.283 7.28 117.419 6.984C117.555 6.688 117.623 6.34 117.623 5.94C117.623 5.34 117.471 4.864 117.167 4.512C116.871 4.16 116.463 3.984 115.943 3.984C115.599 3.984 115.303 4.064 115.055 4.224C114.807 4.384 114.611 4.612 114.467 4.908C114.331 5.196 114.263 5.54 114.263 5.94C114.263 6.548 114.415 7.028 114.719 7.38C115.023 7.732 115.431 7.908 115.943 7.908ZM121.136 9.084C120.944 9.084 120.796 9.032 120.692 8.928C120.588 8.816 120.536 8.664 120.536 8.472V3.672C120.536 3.472 120.588 3.32 120.692 3.216C120.796 3.112 120.94 3.06 121.124 3.06C121.316 3.06 121.46 3.112 121.556 3.216C121.66 3.32 121.712 3.472 121.712 3.672V4.656L121.58 4.392C121.74 3.968 121.988 3.636 122.324 3.396C122.66 3.156 123.064 3.036 123.536 3.036C124.024 3.036 124.42 3.152 124.724 3.384C125.028 3.616 125.236 3.972 125.348 4.452H125.18C125.332 4.012 125.592 3.668 125.96 3.42C126.328 3.164 126.756 3.036 127.244 3.036C127.692 3.036 128.06 3.124 128.348 3.3C128.636 3.468 128.852 3.728 128.996 4.08C129.14 4.424 129.212 4.86 129.212 5.388V8.472C129.212 8.664 129.156 8.816 129.044 8.928C128.94 9.032 128.792 9.084 128.6 9.084C128.408 9.084 128.26 9.032 128.156 8.928C128.052 8.816 128 8.664 128 8.472V5.448C128 4.952 127.912 4.588 127.736 4.356C127.568 4.124 127.288 4.008 126.896 4.008C126.456 4.008 126.108 4.16 125.852 4.464C125.596 4.768 125.468 5.188 125.468 5.724V8.472C125.468 8.664 125.416 8.816 125.312 8.928C125.208 9.032 125.06 9.084 124.868 9.084C124.676 9.084 124.524 9.032 124.412 8.928C124.308 8.816 124.256 8.664 124.256 8.472V5.448C124.256 4.952 124.172 4.588 124.004 4.356C123.836 4.124 123.556 4.008 123.164 4.008C122.724 4.008 122.376 4.16 122.12 4.464C121.872 4.768 121.748 5.188 121.748 5.724V8.472C121.748 8.88 121.544 9.084 121.136 9.084ZM132.779 9.108C132.371 9.108 132.003 9.028 131.675 8.868C131.355 8.708 131.103 8.492 130.919 8.22C130.735 7.948 130.643 7.64 130.643 7.296C130.643 6.864 130.751 6.524 130.967 6.276C131.191 6.02 131.555 5.84 132.059 5.736C132.571 5.624 133.259 5.568 134.123 5.568H134.687V6.312H134.135C133.559 6.312 133.103 6.34 132.767 6.396C132.431 6.452 132.191 6.548 132.047 6.684C131.911 6.812 131.843 6.992 131.843 7.224C131.843 7.528 131.947 7.776 132.155 7.968C132.363 8.152 132.651 8.244 133.019 8.244C133.315 8.244 133.575 8.176 133.799 8.04C134.023 7.896 134.199 7.704 134.327 7.464C134.463 7.224 134.531 6.948 134.531 6.636V5.256C134.531 4.8 134.435 4.472 134.243 4.272C134.051 4.072 133.735 3.972 133.295 3.972C133.039 3.972 132.771 4.004 132.491 4.068C132.219 4.132 131.935 4.24 131.639 4.392C131.503 4.456 131.387 4.476 131.291 4.452C131.195 4.428 131.119 4.376 131.063 4.296C131.007 4.208 130.975 4.116 130.967 4.02C130.967 3.916 130.991 3.816 131.039 3.72C131.095 3.624 131.187 3.552 131.315 3.504C131.667 3.336 132.015 3.216 132.359 3.144C132.703 3.072 133.027 3.036 133.331 3.036C133.867 3.036 134.307 3.12 134.651 3.288C135.003 3.456 135.263 3.712 135.431 4.056C135.599 4.4 135.683 4.844 135.683 5.388V8.472C135.683 8.664 135.635 8.816 135.539 8.928C135.443 9.032 135.303 9.084 135.119 9.084C134.943 9.084 134.803 9.032 134.699 8.928C134.595 8.816 134.543 8.664 134.543 8.472V7.692H134.651C134.587 7.988 134.467 8.244 134.291 8.46C134.123 8.668 133.911 8.828 133.655 8.94C133.399 9.052 133.107 9.108 132.779 9.108ZM137.952 9.072C137.76 9.072 137.612 9.016 137.508 8.904C137.404 8.784 137.352 8.62 137.352 8.412V3.732C137.352 3.524 137.404 3.364 137.508 3.252C137.612 3.14 137.76 3.084 137.952 3.084C138.144 3.084 138.292 3.14 138.396 3.252C138.508 3.364 138.564 3.524 138.564 3.732V8.412C138.564 8.62 138.512 8.784 138.408 8.904C138.304 9.016 138.152 9.072 137.952 9.072ZM137.952 1.836C137.712 1.836 137.524 1.776 137.388 1.656C137.26 1.536 137.196 1.368 137.196 1.152C137.196 0.927999 137.26 0.76 137.388 0.648C137.524 0.528 137.712 0.468 137.952 0.468C138.192 0.468 138.376 0.528 138.504 0.648C138.64 0.76 138.708 0.927999 138.708 1.152C138.708 1.368 138.64 1.536 138.504 1.656C138.376 1.776 138.192 1.836 137.952 1.836ZM142.154 9.108C141.53 9.108 141.058 8.928 140.738 8.568C140.426 8.2 140.27 7.672 140.27 6.984V1.068C140.27 0.868 140.322 0.715999 140.426 0.611999C140.53 0.508 140.678 0.456 140.87 0.456C141.062 0.456 141.21 0.508 141.314 0.611999C141.426 0.715999 141.482 0.868 141.482 1.068V6.912C141.482 7.312 141.562 7.612 141.722 7.812C141.89 8.004 142.13 8.1 142.442 8.1C142.514 8.1 142.578 8.1 142.634 8.1C142.69 8.092 142.746 8.084 142.802 8.076C142.898 8.068 142.966 8.096 143.006 8.16C143.046 8.216 143.066 8.336 143.066 8.52C143.066 8.688 143.03 8.82 142.958 8.916C142.886 9.004 142.77 9.06 142.61 9.084C142.538 9.092 142.462 9.096 142.382 9.096C142.302 9.104 142.226 9.108 142.154 9.108ZM144.643 9.048C144.411 9.048 144.223 8.976 144.079 8.832C143.935 8.688 143.863 8.504 143.863 8.28C143.863 8.056 143.935 7.876 144.079 7.74C144.223 7.596 144.411 7.524 144.643 7.524C144.875 7.524 145.059 7.596 145.195 7.74C145.331 7.876 145.399 8.056 145.399 8.28C145.399 8.504 145.331 8.688 145.195 8.832C145.059 8.976 144.875 9.048 144.643 9.048ZM149.237 9.108C148.637 9.108 148.117 8.984 147.677 8.736C147.245 8.48 146.909 8.124 146.669 7.668C146.429 7.204 146.309 6.66 146.309 6.036C146.309 5.572 146.377 5.156 146.513 4.788C146.649 4.412 146.841 4.096 147.089 3.84C147.345 3.584 147.653 3.388 148.013 3.252C148.381 3.108 148.789 3.036 149.237 3.036C149.517 3.036 149.809 3.08 150.113 3.168C150.425 3.248 150.713 3.384 150.977 3.576C151.081 3.64 151.145 3.72 151.169 3.816C151.201 3.904 151.205 3.996 151.181 4.092C151.165 4.188 151.121 4.272 151.049 4.344C150.985 4.408 150.905 4.448 150.809 4.464C150.713 4.472 150.609 4.444 150.497 4.38C150.305 4.244 150.109 4.148 149.909 4.092C149.709 4.028 149.517 3.996 149.333 3.996C149.045 3.996 148.789 4.044 148.565 4.14C148.349 4.228 148.165 4.36 148.013 4.536C147.861 4.704 147.745 4.916 147.665 5.172C147.593 5.428 147.557 5.72 147.557 6.048C147.557 6.704 147.709 7.22 148.013 7.596C148.325 7.964 148.765 8.148 149.333 8.148C149.517 8.148 149.709 8.12 149.909 8.064C150.109 8.008 150.305 7.912 150.497 7.776C150.609 7.712 150.713 7.688 150.809 7.704C150.905 7.72 150.981 7.764 151.037 7.836C151.101 7.9 151.141 7.98 151.157 8.076C151.181 8.164 151.177 8.256 151.145 8.352C151.113 8.448 151.045 8.528 150.941 8.592C150.685 8.776 150.405 8.908 150.101 8.988C149.805 9.068 149.517 9.108 149.237 9.108ZM154.685 9.108C154.093 9.108 153.581 8.984 153.149 8.736C152.725 8.488 152.393 8.136 152.153 7.68C151.913 7.224 151.793 6.688 151.793 6.072C151.793 5.6 151.861 5.18 151.997 4.812C152.133 4.444 152.325 4.128 152.573 3.864C152.829 3.592 153.133 3.388 153.485 3.252C153.845 3.108 154.245 3.036 154.685 3.036C155.269 3.036 155.773 3.16 156.197 3.408C156.629 3.656 156.965 4.008 157.205 4.464C157.445 4.912 157.565 5.448 157.565 6.072C157.565 6.536 157.497 6.956 157.361 7.332C157.225 7.708 157.029 8.028 156.773 8.292C156.525 8.556 156.221 8.76 155.861 8.904C155.509 9.04 155.117 9.108 154.685 9.108ZM154.685 8.172C155.013 8.172 155.301 8.092 155.549 7.932C155.797 7.772 155.989 7.536 156.125 7.224C156.269 6.912 156.341 6.528 156.341 6.072C156.341 5.384 156.189 4.864 155.885 4.512C155.581 4.16 155.181 3.984 154.685 3.984C154.349 3.984 154.057 4.064 153.809 4.224C153.561 4.376 153.365 4.608 153.221 4.92C153.085 5.232 153.017 5.616 153.017 6.072C153.017 6.752 153.169 7.272 153.473 7.632C153.777 7.992 154.181 8.172 154.685 8.172ZM159.55 9.084C159.358 9.084 159.21 9.032 159.106 8.928C159.002 8.816 158.95 8.664 158.95 8.472V3.672C158.95 3.472 159.002 3.32 159.106 3.216C159.21 3.112 159.354 3.06 159.538 3.06C159.73 3.06 159.874 3.112 159.97 3.216C160.074 3.32 160.126 3.472 160.126 3.672V4.656L159.994 4.392C160.154 3.968 160.402 3.636 160.738 3.396C161.074 3.156 161.478 3.036 161.95 3.036C162.438 3.036 162.834 3.152 163.138 3.384C163.442 3.616 163.65 3.972 163.762 4.452H163.594C163.746 4.012 164.006 3.668 164.374 3.42C164.742 3.164 165.17 3.036 165.658 3.036C166.106 3.036 166.474 3.124 166.762 3.3C167.05 3.468 167.266 3.728 167.41 4.08C167.554 4.424 167.626 4.86 167.626 5.388V8.472C167.626 8.664 167.57 8.816 167.458 8.928C167.354 9.032 167.206 9.084 167.014 9.084C166.822 9.084 166.674 9.032 166.57 8.928C166.466 8.816 166.414 8.664 166.414 8.472V5.448C166.414 4.952 166.326 4.588 166.15 4.356C165.982 4.124 165.702 4.008 165.31 4.008C164.87 4.008 164.522 4.16 164.266 4.464C164.01 4.768 163.882 5.188 163.882 5.724V8.472C163.882 8.664 163.83 8.816 163.726 8.928C163.622 9.032 163.474 9.084 163.282 9.084C163.09 9.084 162.938 9.032 162.826 8.928C162.722 8.816 162.67 8.664 162.67 8.472V5.448C162.67 4.952 162.586 4.588 162.418 4.356C162.25 4.124 161.97 4.008 161.578 4.008C161.138 4.008 160.79 4.16 160.534 4.464C160.286 4.768 160.162 5.188 160.162 5.724V8.472C160.162 8.88 159.958 9.084 159.55 9.084Z" fill="white"/>
</svg>
