<svg width="100" height="100" viewBox="0 0 100 100" fill="none" xmlns="http://www.w3.org/2000/svg">
<path d="M0 6.25C0 2.79297 2.79297 0 6.25 0H93.75C97.207 0 100 2.79297 100 6.25C100 9.70703 97.207 12.5 93.75 12.5V87.5C97.207 87.5 100 90.293 100 93.75C100 97.207 97.207 100 93.75 100H59.375V90.625C59.375 85.4492 55.1758 81.25 50 81.25C44.8242 81.25 40.625 85.4492 40.625 90.625V100H6.25C2.79297 100 0 97.207 0 93.75C0 90.293 2.79297 87.5 6.25 87.5V12.5C2.79297 12.5 0 9.70703 0 6.25ZM18.75 21.875V28.125C18.75 29.8438 20.1562 31.25 21.875 31.25H28.125C29.8438 31.25 31.25 29.8438 31.25 28.125V21.875C31.25 20.1562 29.8438 18.75 28.125 18.75H21.875C20.1562 18.75 18.75 20.1562 18.75 21.875ZM46.875 18.75C45.1562 18.75 43.75 20.1562 43.75 21.875V28.125C43.75 29.8438 45.1562 31.25 46.875 31.25H53.125C54.8438 31.25 56.25 29.8438 56.25 28.125V21.875C56.25 20.1562 54.8438 18.75 53.125 18.75H46.875ZM68.75 21.875V28.125C68.75 29.8438 70.1562 31.25 71.875 31.25H78.125C79.8438 31.25 81.25 29.8438 81.25 28.125V21.875C81.25 20.1562 79.8438 18.75 78.125 18.75H71.875C70.1562 18.75 68.75 20.1562 68.75 21.875ZM21.875 37.5C20.1562 37.5 18.75 38.9062 18.75 40.625V46.875C18.75 48.5938 20.1562 50 21.875 50H28.125C29.8438 50 31.25 48.5938 31.25 46.875V40.625C31.25 38.9062 29.8438 37.5 28.125 37.5H21.875ZM43.75 40.625V46.875C43.75 48.5938 45.1562 50 46.875 50H53.125C54.8438 50 56.25 48.5938 56.25 46.875V40.625C56.25 38.9062 54.8438 37.5 53.125 37.5H46.875C45.1562 37.5 43.75 38.9062 43.75 40.625ZM71.875 37.5C70.1562 37.5 68.75 38.9062 68.75 40.625V46.875C68.75 48.5938 70.1562 50 71.875 50H78.125C79.8438 50 81.25 48.5938 81.25 46.875V40.625C81.25 38.9062 79.8438 37.5 78.125 37.5H71.875ZM64.0625 75C66.6602 75 68.8086 72.8711 68.1641 70.3516C66.0938 62.2461 58.75 56.25 50 56.25C41.25 56.25 33.8867 62.2461 31.8359 70.3516C31.1914 72.8516 33.3594 75 35.9375 75H64.0625Z" fill="#29D9D5"/>
</svg>
